<mxfile host="app.diagrams.net" agent="Mozilla/5.0 (Windows NT 10.0; Win64; x64) AppleWebKit/537.36 (KHTML, like Gecko) Chrome/131.0.0.0 Safari/537.36 Edg/131.0.0.0" version="25.0.3">
  <diagram name="Seite-1" id="aFW3_8HfRu11N2bqZMvD">
    <mxGraphModel dx="2066" dy="1141" grid="1" gridSize="10" guides="1" tooltips="1" connect="1" arrows="1" fold="1" page="1" pageScale="1" pageWidth="1169" pageHeight="827" math="0" shadow="0">
      <root>
        <mxCell id="0" />
        <mxCell id="1" parent="0" />
        <mxCell id="pQr7B-LlqJ96mAxMKaq1-39" value="" style="edgeStyle=orthogonalEdgeStyle;rounded=1;orthogonalLoop=1;jettySize=auto;html=1;exitX=0;exitY=0.5;exitDx=0;exitDy=0;exitPerimeter=0;strokeColor=#6881B3;strokeWidth=2;align=center;verticalAlign=top;fontFamily=Helvetica;fontSize=12;fontColor=#0066CC;fillColor=#CCCCCC;gradientColor=none;gradientDirection=north;dashed=1;" edge="1" parent="1" source="pQr7B-LlqJ96mAxMKaq1-1" target="pQr7B-LlqJ96mAxMKaq1-23">
          <mxGeometry relative="1" as="geometry" />
        </mxCell>
        <mxCell id="pQr7B-LlqJ96mAxMKaq1-41" value="" style="edgeStyle=orthogonalEdgeStyle;rounded=1;orthogonalLoop=1;jettySize=auto;html=1;exitX=0.5;exitY=0;exitDx=0;exitDy=0;exitPerimeter=0;strokeColor=#6881B3;strokeWidth=2;align=center;verticalAlign=top;fontFamily=Helvetica;fontSize=12;fontColor=#0066CC;fillColor=#CCCCCC;gradientColor=none;gradientDirection=north;dashed=1;" edge="1" parent="1" target="pQr7B-LlqJ96mAxMKaq1-10">
          <mxGeometry relative="1" as="geometry">
            <mxPoint x="1225" y="374" as="sourcePoint" />
            <Array as="points">
              <mxPoint x="1225" y="160" />
            </Array>
          </mxGeometry>
        </mxCell>
        <mxCell id="pQr7B-LlqJ96mAxMKaq1-1" value="Nutzer B" style="verticalAlign=top;verticalLabelPosition=bottom;labelPosition=center;align=center;html=1;outlineConnect=0;gradientDirection=north;strokeWidth=2;shape=mxgraph.networks.mobile;rounded=1;strokeColor=#6881B3;fontFamily=Helvetica;fontSize=12;fontColor=#0066CC;fillColor=#CCCCCC;gradientColor=none;" vertex="1" parent="1">
          <mxGeometry x="1200" y="314" width="50" height="100" as="geometry" />
        </mxCell>
        <mxCell id="pQr7B-LlqJ96mAxMKaq1-5" value="" style="edgeStyle=orthogonalEdgeStyle;rounded=1;orthogonalLoop=1;jettySize=auto;html=1;exitX=1;exitY=0.5;exitDx=0;exitDy=0;exitPerimeter=0;strokeColor=#6881B3;strokeWidth=2;align=center;verticalAlign=top;fontFamily=Helvetica;fontSize=12;fontColor=#0066CC;fillColor=#CCCCCC;gradientColor=none;gradientDirection=north;dashed=1;" edge="1" parent="1" source="pQr7B-LlqJ96mAxMKaq1-2" target="pQr7B-LlqJ96mAxMKaq1-4">
          <mxGeometry relative="1" as="geometry" />
        </mxCell>
        <mxCell id="pQr7B-LlqJ96mAxMKaq1-40" value="" style="edgeStyle=orthogonalEdgeStyle;rounded=1;orthogonalLoop=1;jettySize=auto;html=1;exitX=0.5;exitY=0;exitDx=0;exitDy=0;exitPerimeter=0;strokeColor=#6881B3;strokeWidth=2;align=center;verticalAlign=top;fontFamily=Helvetica;fontSize=12;fontColor=#0066CC;fillColor=#CCCCCC;gradientColor=none;gradientDirection=north;dashed=1;" edge="1" parent="1" target="pQr7B-LlqJ96mAxMKaq1-10">
          <mxGeometry relative="1" as="geometry">
            <mxPoint x="175" y="374" as="sourcePoint" />
            <Array as="points">
              <mxPoint x="175" y="160" />
            </Array>
          </mxGeometry>
        </mxCell>
        <mxCell id="pQr7B-LlqJ96mAxMKaq1-2" value="Nutzer A" style="verticalAlign=top;verticalLabelPosition=bottom;labelPosition=center;align=center;html=1;outlineConnect=0;gradientDirection=north;strokeWidth=2;shape=mxgraph.networks.mobile;rounded=1;strokeColor=#6881B3;fontFamily=Helvetica;fontSize=12;fontColor=#0066CC;fillColor=#CCCCCC;gradientColor=none;" vertex="1" parent="1">
          <mxGeometry x="150" y="314" width="50" height="100" as="geometry" />
        </mxCell>
        <mxCell id="pQr7B-LlqJ96mAxMKaq1-4" value="" style="verticalAlign=top;verticalLabelPosition=bottom;labelPosition=center;align=center;html=1;outlineConnect=0;gradientDirection=north;strokeWidth=2;shape=mxgraph.networks.radio_tower;rounded=1;strokeColor=#6881B3;fontFamily=Helvetica;fontSize=12;fontColor=#0066CC;fillColor=#CCCCCC;gradientColor=none;" vertex="1" parent="1">
          <mxGeometry x="250" y="314" width="55" height="100" as="geometry" />
        </mxCell>
        <mxCell id="pQr7B-LlqJ96mAxMKaq1-17" value="" style="edgeStyle=orthogonalEdgeStyle;rounded=1;orthogonalLoop=1;jettySize=auto;html=1;exitX=0;exitY=0.5;exitDx=0;exitDy=0;exitPerimeter=0;endArrow=none;endFill=0;startArrow=classic;startFill=1;strokeColor=#6881B3;strokeWidth=2;align=center;verticalAlign=top;fontFamily=Helvetica;fontSize=12;fontColor=#0066CC;fillColor=#CCCCCC;gradientColor=none;gradientDirection=north;" edge="1" parent="1" source="pQr7B-LlqJ96mAxMKaq1-7" target="pQr7B-LlqJ96mAxMKaq1-4">
          <mxGeometry relative="1" as="geometry" />
        </mxCell>
        <mxCell id="pQr7B-LlqJ96mAxMKaq1-20" value="" style="edgeStyle=orthogonalEdgeStyle;rounded=1;orthogonalLoop=1;jettySize=auto;html=1;exitX=0.88;exitY=0.5;exitDx=0;exitDy=0;exitPerimeter=0;strokeColor=#6881B3;strokeWidth=2;align=center;verticalAlign=top;fontFamily=Helvetica;fontSize=12;fontColor=#0066CC;fillColor=#CCCCCC;gradientColor=none;gradientDirection=north;" edge="1" parent="1" source="pQr7B-LlqJ96mAxMKaq1-7" target="pQr7B-LlqJ96mAxMKaq1-18">
          <mxGeometry relative="1" as="geometry" />
        </mxCell>
        <mxCell id="pQr7B-LlqJ96mAxMKaq1-7" value="Messaging Server" style="verticalAlign=top;verticalLabelPosition=bottom;labelPosition=center;align=center;html=1;outlineConnect=0;gradientDirection=north;strokeWidth=2;shape=mxgraph.networks.mail_server;fillStyle=auto;shadow=0;rounded=1;strokeColor=#6881B3;fontFamily=Helvetica;fontSize=12;fontColor=#0066CC;fillColor=#CCCCCC;gradientColor=none;" vertex="1" parent="1">
          <mxGeometry x="390" y="324" width="80" height="80" as="geometry" />
        </mxCell>
        <mxCell id="pQr7B-LlqJ96mAxMKaq1-16" value="" style="edgeStyle=orthogonalEdgeStyle;rounded=1;orthogonalLoop=1;jettySize=auto;html=1;exitX=0;exitY=0.5;exitDx=0;exitDy=0;exitPerimeter=0;startArrow=classic;startFill=1;endArrow=none;endFill=0;strokeColor=#6881B3;strokeWidth=2;align=center;verticalAlign=top;fontFamily=Helvetica;fontSize=12;fontColor=#0066CC;fillColor=#CCCCCC;gradientColor=none;gradientDirection=north;" edge="1" parent="1" source="pQr7B-LlqJ96mAxMKaq1-9" target="pQr7B-LlqJ96mAxMKaq1-4">
          <mxGeometry relative="1" as="geometry" />
        </mxCell>
        <mxCell id="pQr7B-LlqJ96mAxMKaq1-22" value="" style="edgeStyle=orthogonalEdgeStyle;rounded=1;orthogonalLoop=1;jettySize=auto;html=1;exitX=0.88;exitY=0.5;exitDx=0;exitDy=0;exitPerimeter=0;strokeColor=#6881B3;strokeWidth=2;align=center;verticalAlign=top;fontFamily=Helvetica;fontSize=12;fontColor=#0066CC;fillColor=#CCCCCC;gradientColor=none;gradientDirection=north;" edge="1" parent="1" source="pQr7B-LlqJ96mAxMKaq1-9" target="pQr7B-LlqJ96mAxMKaq1-18">
          <mxGeometry relative="1" as="geometry">
            <Array as="points">
              <mxPoint x="590" y="484" />
            </Array>
          </mxGeometry>
        </mxCell>
        <mxCell id="pQr7B-LlqJ96mAxMKaq1-9" value="Content Server" style="verticalAlign=top;verticalLabelPosition=bottom;labelPosition=center;align=center;html=1;outlineConnect=0;gradientDirection=north;strokeWidth=2;shape=mxgraph.networks.web_server;rounded=1;strokeColor=#6881B3;fontFamily=Helvetica;fontSize=12;fontColor=#0066CC;fillColor=#CCCCCC;gradientColor=none;" vertex="1" parent="1">
          <mxGeometry x="390" y="444" width="80" height="80" as="geometry" />
        </mxCell>
        <mxCell id="pQr7B-LlqJ96mAxMKaq1-10" value="KeyÂ Server" style="html=1;outlineConnect=0;gradientDirection=north;strokeWidth=2;shape=mxgraph.networks.cloud;labelPosition=center;verticalLabelPosition=bottom;align=center;verticalAlign=top;rounded=1;strokeColor=#6881B3;fontFamily=Helvetica;fontSize=12;fontColor=#0066CC;fillColor=#CCCCCC;gradientColor=none;" vertex="1" parent="1">
          <mxGeometry x="645.71" y="124" width="110" height="60" as="geometry" />
        </mxCell>
        <mxCell id="pQr7B-LlqJ96mAxMKaq1-14" value="" style="edgeStyle=orthogonalEdgeStyle;rounded=1;orthogonalLoop=1;jettySize=auto;html=1;exitX=0;exitY=0.5;exitDx=0;exitDy=0;exitPerimeter=0;startArrow=classic;startFill=1;endArrow=none;endFill=0;strokeColor=#6881B3;strokeWidth=2;align=center;verticalAlign=top;fontFamily=Helvetica;fontSize=12;fontColor=#0066CC;fillColor=#CCCCCC;gradientColor=none;gradientDirection=north;" edge="1" parent="1" source="pQr7B-LlqJ96mAxMKaq1-11" target="pQr7B-LlqJ96mAxMKaq1-4">
          <mxGeometry relative="1" as="geometry" />
        </mxCell>
        <mxCell id="pQr7B-LlqJ96mAxMKaq1-21" value="" style="edgeStyle=orthogonalEdgeStyle;rounded=1;orthogonalLoop=1;jettySize=auto;html=1;exitX=0.88;exitY=0.5;exitDx=0;exitDy=0;exitPerimeter=0;strokeColor=#6881B3;strokeWidth=2;align=center;verticalAlign=top;fontFamily=Helvetica;fontSize=12;fontColor=#0066CC;fillColor=#CCCCCC;gradientColor=none;gradientDirection=north;" edge="1" parent="1" source="pQr7B-LlqJ96mAxMKaq1-11" target="pQr7B-LlqJ96mAxMKaq1-18">
          <mxGeometry relative="1" as="geometry">
            <Array as="points">
              <mxPoint x="590" y="244" />
            </Array>
          </mxGeometry>
        </mxCell>
        <mxCell id="pQr7B-LlqJ96mAxMKaq1-11" value="Profile Server" style="verticalAlign=top;verticalLabelPosition=bottom;labelPosition=center;align=center;html=1;outlineConnect=0;gradientDirection=north;strokeWidth=2;shape=mxgraph.networks.server_storage;rounded=1;strokeColor=#6881B3;fontFamily=Helvetica;fontSize=12;fontColor=#0066CC;fillColor=#CCCCCC;gradientColor=none;" vertex="1" parent="1">
          <mxGeometry x="390" y="204" width="80" height="80" as="geometry" />
        </mxCell>
        <mxCell id="pQr7B-LlqJ96mAxMKaq1-13" value="RCS Netz A" style="shape=umlFrame;whiteSpace=wrap;html=1;pointerEvents=0;width=80;height=30;rounded=1;strokeColor=#6881B3;strokeWidth=2;align=center;verticalAlign=top;fontFamily=Helvetica;fontSize=12;fontColor=#0066CC;fillColor=#CCCCCC;gradientColor=none;gradientDirection=north;" vertex="1" parent="1">
          <mxGeometry x="240" y="190" width="380" height="370" as="geometry" />
        </mxCell>
        <mxCell id="pQr7B-LlqJ96mAxMKaq1-18" value="NNI" style="verticalAlign=top;verticalLabelPosition=bottom;labelPosition=right;align=left;html=1;outlineConnect=0;gradientDirection=north;strokeWidth=2;shape=mxgraph.networks.patch_panel;rounded=1;strokeColor=#6881B3;fontFamily=Helvetica;fontSize=12;fontColor=#0066CC;fillColor=#CCCCCC;gradientColor=none;" vertex="1" parent="1">
          <mxGeometry x="560" y="349" width="85.71" height="30" as="geometry" />
        </mxCell>
        <mxCell id="pQr7B-LlqJ96mAxMKaq1-23" value="" style="verticalAlign=top;verticalLabelPosition=bottom;labelPosition=center;align=center;html=1;outlineConnect=0;gradientDirection=north;strokeWidth=2;shape=mxgraph.networks.radio_tower;rounded=1;strokeColor=#6881B3;fontFamily=Helvetica;fontSize=12;fontColor=#0066CC;fillColor=#CCCCCC;gradientColor=none;" vertex="1" parent="1">
          <mxGeometry x="1093" y="314" width="55" height="100" as="geometry" />
        </mxCell>
        <mxCell id="pQr7B-LlqJ96mAxMKaq1-35" value="" style="edgeStyle=orthogonalEdgeStyle;rounded=1;orthogonalLoop=1;jettySize=auto;html=1;exitX=0;exitY=0.5;exitDx=0;exitDy=0;exitPerimeter=0;strokeColor=#6881B3;strokeWidth=2;align=center;verticalAlign=top;fontFamily=Helvetica;fontSize=12;fontColor=#0066CC;fillColor=#CCCCCC;gradientColor=none;gradientDirection=north;" edge="1" parent="1" source="pQr7B-LlqJ96mAxMKaq1-26" target="pQr7B-LlqJ96mAxMKaq1-34">
          <mxGeometry relative="1" as="geometry" />
        </mxCell>
        <mxCell id="pQr7B-LlqJ96mAxMKaq1-44" value="" style="edgeStyle=orthogonalEdgeStyle;rounded=1;orthogonalLoop=1;jettySize=auto;html=1;exitX=0.88;exitY=0.5;exitDx=0;exitDy=0;exitPerimeter=0;startArrow=classic;startFill=1;endArrow=none;endFill=0;strokeColor=#6881B3;strokeWidth=2;align=center;verticalAlign=top;fontFamily=Helvetica;fontSize=12;fontColor=#0066CC;fillColor=#CCCCCC;gradientColor=none;gradientDirection=north;" edge="1" parent="1" source="pQr7B-LlqJ96mAxMKaq1-26" target="pQr7B-LlqJ96mAxMKaq1-23">
          <mxGeometry relative="1" as="geometry" />
        </mxCell>
        <mxCell id="pQr7B-LlqJ96mAxMKaq1-26" value="Messaging Server" style="verticalAlign=top;verticalLabelPosition=bottom;labelPosition=center;align=center;html=1;outlineConnect=0;gradientDirection=north;strokeWidth=2;shape=mxgraph.networks.mail_server;rounded=1;strokeColor=#6881B3;fontFamily=Helvetica;fontSize=12;fontColor=#0066CC;fillColor=#CCCCCC;gradientColor=none;" vertex="1" parent="1">
          <mxGeometry x="950" y="324" width="80" height="80" as="geometry" />
        </mxCell>
        <mxCell id="pQr7B-LlqJ96mAxMKaq1-37" value="" style="edgeStyle=orthogonalEdgeStyle;rounded=1;orthogonalLoop=1;jettySize=auto;html=1;exitX=0;exitY=0.5;exitDx=0;exitDy=0;exitPerimeter=0;strokeColor=#6881B3;strokeWidth=2;align=center;verticalAlign=top;fontFamily=Helvetica;fontSize=12;fontColor=#0066CC;fillColor=#CCCCCC;gradientColor=none;gradientDirection=north;" edge="1" parent="1" source="pQr7B-LlqJ96mAxMKaq1-29" target="pQr7B-LlqJ96mAxMKaq1-34">
          <mxGeometry relative="1" as="geometry">
            <Array as="points">
              <mxPoint x="820" y="484" />
            </Array>
          </mxGeometry>
        </mxCell>
        <mxCell id="pQr7B-LlqJ96mAxMKaq1-43" value="" style="edgeStyle=orthogonalEdgeStyle;rounded=1;orthogonalLoop=1;jettySize=auto;html=1;exitX=0.88;exitY=0.5;exitDx=0;exitDy=0;exitPerimeter=0;startArrow=classic;startFill=1;endArrow=none;endFill=0;strokeColor=#6881B3;strokeWidth=2;align=center;verticalAlign=top;fontFamily=Helvetica;fontSize=12;fontColor=#0066CC;fillColor=#CCCCCC;gradientColor=none;gradientDirection=north;" edge="1" parent="1" source="pQr7B-LlqJ96mAxMKaq1-29" target="pQr7B-LlqJ96mAxMKaq1-23">
          <mxGeometry relative="1" as="geometry" />
        </mxCell>
        <mxCell id="pQr7B-LlqJ96mAxMKaq1-29" value="Content Server" style="verticalAlign=top;verticalLabelPosition=bottom;labelPosition=center;align=center;html=1;outlineConnect=0;gradientDirection=north;strokeWidth=2;shape=mxgraph.networks.web_server;rounded=1;strokeColor=#6881B3;fontFamily=Helvetica;fontSize=12;fontColor=#0066CC;fillColor=#CCCCCC;gradientColor=none;" vertex="1" parent="1">
          <mxGeometry x="950" y="444" width="80" height="80" as="geometry" />
        </mxCell>
        <mxCell id="pQr7B-LlqJ96mAxMKaq1-36" value="" style="edgeStyle=orthogonalEdgeStyle;rounded=1;orthogonalLoop=1;jettySize=auto;html=1;exitX=0;exitY=0.5;exitDx=0;exitDy=0;exitPerimeter=0;strokeColor=#6881B3;strokeWidth=2;align=center;verticalAlign=top;fontFamily=Helvetica;fontSize=12;fontColor=#0066CC;fillColor=#CCCCCC;gradientColor=none;gradientDirection=north;" edge="1" parent="1" source="pQr7B-LlqJ96mAxMKaq1-32" target="pQr7B-LlqJ96mAxMKaq1-34">
          <mxGeometry relative="1" as="geometry">
            <Array as="points">
              <mxPoint x="820" y="244" />
            </Array>
          </mxGeometry>
        </mxCell>
        <mxCell id="pQr7B-LlqJ96mAxMKaq1-42" value="" style="edgeStyle=orthogonalEdgeStyle;rounded=1;orthogonalLoop=1;jettySize=auto;html=1;exitX=0.88;exitY=0.5;exitDx=0;exitDy=0;exitPerimeter=0;startArrow=classic;startFill=1;endArrow=none;endFill=0;strokeColor=#6881B3;strokeWidth=2;align=center;verticalAlign=top;fontFamily=Helvetica;fontSize=12;fontColor=#0066CC;fillColor=#CCCCCC;gradientColor=none;gradientDirection=north;" edge="1" parent="1" source="pQr7B-LlqJ96mAxMKaq1-32" target="pQr7B-LlqJ96mAxMKaq1-23">
          <mxGeometry relative="1" as="geometry" />
        </mxCell>
        <mxCell id="pQr7B-LlqJ96mAxMKaq1-32" value="Profile Server" style="verticalAlign=top;verticalLabelPosition=bottom;labelPosition=center;align=center;html=1;outlineConnect=0;gradientDirection=north;strokeWidth=2;shape=mxgraph.networks.server_storage;rounded=1;strokeColor=#6881B3;fontFamily=Helvetica;fontSize=12;fontColor=#0066CC;fillColor=#CCCCCC;gradientColor=none;" vertex="1" parent="1">
          <mxGeometry x="950" y="204" width="80" height="80" as="geometry" />
        </mxCell>
        <mxCell id="pQr7B-LlqJ96mAxMKaq1-33" value="RCS Netz B" style="shape=umlFrame;whiteSpace=wrap;html=1;pointerEvents=0;width=80;height=30;rounded=1;strokeColor=#6881B3;strokeWidth=2;align=center;verticalAlign=top;fontFamily=Helvetica;fontSize=12;fontColor=#0066CC;fillColor=#CCCCCC;gradientColor=none;gradientDirection=north;" vertex="1" parent="1">
          <mxGeometry x="780" y="190" width="380" height="370" as="geometry" />
        </mxCell>
        <mxCell id="pQr7B-LlqJ96mAxMKaq1-34" value="NNI" style="verticalAlign=top;verticalLabelPosition=bottom;labelPosition=left;align=right;html=1;outlineConnect=0;gradientDirection=north;strokeWidth=2;shape=mxgraph.networks.patch_panel;rounded=1;strokeColor=#6881B3;fontFamily=Helvetica;fontSize=12;fontColor=#0066CC;fillColor=#CCCCCC;gradientColor=none;" vertex="1" parent="1">
          <mxGeometry x="760" y="349" width="85.71" height="30" as="geometry" />
        </mxCell>
        <mxCell id="pQr7B-LlqJ96mAxMKaq1-38" value="" style="edgeStyle=orthogonalEdgeStyle;rounded=1;orthogonalLoop=1;jettySize=auto;html=1;exitX=0.98;exitY=0.51;exitDx=0;exitDy=0;exitPerimeter=0;entryX=0.02;entryY=0.51;entryDx=0;entryDy=0;entryPerimeter=0;strokeColor=#6881B3;strokeWidth=2;align=center;verticalAlign=top;fontFamily=Helvetica;fontSize=12;fontColor=#0066CC;fillColor=#CCCCCC;gradientColor=none;gradientDirection=north;dashed=1;startArrow=classic;startFill=1;" edge="1" parent="1" source="pQr7B-LlqJ96mAxMKaq1-18" target="pQr7B-LlqJ96mAxMKaq1-34">
          <mxGeometry relative="1" as="geometry" />
        </mxCell>
        <mxCell id="pQr7B-LlqJ96mAxMKaq1-45" value="" style="verticalAlign=top;verticalLabelPosition=bottom;labelPosition=center;align=center;html=1;outlineConnect=0;gradientDirection=north;strokeWidth=2;shape=mxgraph.networks.secured;rounded=1;strokeColor=#6881B3;fontFamily=Helvetica;fontSize=12;fontColor=#0066CC;fillColor=#F7F7F7;gradientColor=none;fillStyle=auto;" vertex="1" parent="1">
          <mxGeometry x="688.71" y="140" width="24" height="30" as="geometry" />
        </mxCell>
      </root>
    </mxGraphModel>
  </diagram>
</mxfile>
